<svg xmlns="http://www.w3.org/2000/svg" xmlns:xlink="http://www.w3.org/1999/xlink" version="1.1" viewBox="0 0 96 96" x="0px" y="0px"><path d="M76 96h-68c-1.104 0-2-0.9-2-2v-69.672c0-0.492 0.18-0.964 0.508-1.332l20-22.328c0.38-0.424 0.92-0.668 1.492-0.668h48c1.1 0 2 0.896 2 2v46c0 1.104-0.9 2-2 2s-2-0.896-2-2v-44h-45.104l-18.896 21.092v66.908h64v-8c0-1.1 0.9-2 2-2s2 0.9 2 2v10c0 1.1-0.9 2-2 2z" fill="#000000"></path><path d="M28 28h-18c-1.104 0-2-0.896-2-2s0.896-2 2-2h16v-20c0-1.104 0.896-2 2-2s2 0.896 2 2v22c0 1.104-0.896 2-2 2z" fill="#000000"></path><path d="M84 84h-48c-3.308 0-6-2.692-6-6v-24c0-3.308 2.692-6 6-6h48c3.308 0 6 2.692 6 6v24c0 3.308-2.692 6-6 6zM36 52c-1.104 0-2 0.9-2 2v24c0 1.1 0.896 2 2 2h48c1.1 0 2-0.9 2-2v-24c0-1.1-0.9-2-2-2h-48z" fill="#000000"></path><path d="M52.916 71.564c0.112 0 0.216 0.052 0.304 0.136l0.796 0.872c-0.616 0.712-1.36 1.268-2.244 1.664-0.876 0.404-1.932 0.596-3.168 0.596-1.084 0-2.068-0.188-2.948-0.56-0.88-0.376-1.632-0.908-2.252-1.584-0.624-0.672-1.104-1.484-1.448-2.416-0.34-0.944-0.512-1.984-0.512-3.116s0.184-2.168 0.552-3.112c0.368-0.94 0.884-1.752 1.548-2.424 0.664-0.676 1.46-1.204 2.384-1.584 0.924-0.376 1.948-0.564 3.068-0.564 1.104 0 2.060 0.172 2.856 0.512 0.8 0.344 1.512 0.812 2.136 1.396l-0.664 0.932c-0.052 0.072-0.104 0.124-0.168 0.172-0.064 0.044-0.156 0.068-0.272 0.068-0.088 0-0.188-0.032-0.288-0.092-0.096-0.072-0.22-0.148-0.36-0.252-0.14-0.088-0.304-0.2-0.492-0.316-0.188-0.112-0.412-0.216-0.672-0.316-0.252-0.088-0.56-0.176-0.9-0.244-0.344-0.076-0.74-0.1-1.184-0.1-0.804 0-1.54 0.14-2.208 0.416s-1.244 0.668-1.724 1.18c-0.48 0.512-0.86 1.128-1.128 1.868-0.268 0.732-0.404 1.556-0.404 2.464 0 0.936 0.136 1.772 0.404 2.504 0.268 0.736 0.636 1.356 1.1 1.86 0.464 0.508 1.016 0.892 1.652 1.16 0.636 0.264 1.32 0.4 2.056 0.4 0.448 0 0.848-0.024 1.208-0.080 0.356-0.052 0.684-0.136 0.996-0.252 0.304-0.108 0.584-0.252 0.844-0.416 0.264-0.172 0.528-0.38 0.796-0.616 0.108-0.104 0.224-0.156 0.336-0.156z" fill="#000000"></path><path d="M64.384 61.992c-0.064 0.1-0.124 0.184-0.2 0.236-0.068 0.056-0.16 0.084-0.268 0.084-0.12 0-0.256-0.068-0.416-0.18-0.16-0.116-0.356-0.248-0.596-0.392s-0.532-0.276-0.872-0.404c-0.336-0.116-0.752-0.176-1.232-0.176-0.452 0-0.86 0.060-1.204 0.184-0.352 0.124-0.64 0.288-0.876 0.5-0.24 0.212-0.416 0.456-0.532 0.748-0.116 0.284-0.176 0.584-0.176 0.916 0 0.416 0.096 0.768 0.308 1.044 0.204 0.276 0.48 0.516 0.82 0.712 0.336 0.196 0.724 0.364 1.152 0.508 0.424 0.14 0.872 0.288 1.324 0.444 0.444 0.156 0.892 0.328 1.32 0.516 0.424 0.192 0.812 0.432 1.148 0.732 0.344 0.292 0.612 0.652 0.82 1.084 0.212 0.42 0.312 0.944 0.312 1.572 0 0.656-0.108 1.272-0.336 1.848-0.224 0.584-0.552 1.084-0.976 1.504-0.428 0.42-0.96 0.756-1.584 1.008-0.624 0.244-1.336 0.364-2.132 0.364-0.968 0-1.856-0.176-2.66-0.528-0.8-0.352-1.48-0.828-2.052-1.428l0.584-0.96c0.056-0.084 0.124-0.14 0.204-0.196 0.084-0.056 0.172-0.084 0.268-0.084 0.148 0 0.316 0.084 0.5 0.24 0.192 0.156 0.424 0.328 0.708 0.516s0.624 0.364 1.032 0.524c0.4 0.156 0.892 0.236 1.468 0.236 0.484 0 0.916-0.072 1.288-0.2 0.384-0.132 0.696-0.32 0.96-0.572 0.264-0.24 0.464-0.528 0.6-0.864 0.14-0.332 0.216-0.708 0.216-1.12 0-0.456-0.104-0.824-0.312-1.112-0.204-0.288-0.476-0.54-0.812-0.732-0.336-0.196-0.72-0.36-1.148-0.5-0.424-0.136-0.868-0.276-1.316-0.416-0.452-0.144-0.896-0.312-1.328-0.496-0.424-0.196-0.812-0.432-1.148-0.744-0.336-0.296-0.604-0.68-0.812-1.124-0.204-0.452-0.312-1.008-0.312-1.672 0-0.536 0.108-1.048 0.312-1.544 0.208-0.496 0.508-0.928 0.9-1.32 0.392-0.384 0.876-0.692 1.452-0.916 0.576-0.24 1.24-0.344 1.984-0.344 0.844 0 1.604 0.132 2.296 0.4 0.696 0.268 1.296 0.652 1.82 1.156l-0.496 0.948z" fill="#000000"></path><path d="M66.064 59.64h1.624c0.18 0 0.328 0.044 0.44 0.132s0.196 0.212 0.252 0.344l4.248 10.6c0.096 0.236 0.184 0.496 0.26 0.776 0.084 0.276 0.164 0.572 0.24 0.872 0.064-0.3 0.128-0.592 0.204-0.872s0.16-0.544 0.252-0.776l4.232-10.6c0.048-0.116 0.128-0.228 0.252-0.328 0.116-0.104 0.26-0.156 0.436-0.156h1.636l-6.124 15.028h-1.836l-6.116-15.020z" fill="#000000"></path></svg>